<?xml version="1.0" encoding="UTF-8"?>
<!DOCTYPE svg PUBLIC "-//W3C//DTD SVG 1.1//EN" "http://www.w3.org/Graphics/SVG/1.1/DTD/svg11.dtd">
<!-- Creator: CorelDRAW -->
<svg xmlns="http://www.w3.org/2000/svg" xml:space="preserve" width="200px" height="200px" version="1.1" style="shape-rendering:geometricPrecision; text-rendering:geometricPrecision; image-rendering:optimizeQuality; fill-rule:evenodd; clip-rule:evenodd"
viewBox="0 0 200 200"
 xmlns:xlink="http://www.w3.org/1999/xlink"
 xmlns:xodm="http://www.corel.com/coreldraw/odm/2003">
 <defs>
  <style type="text/css">
   <![CDATA[
    .str1 {stroke:#2B2A29;stroke-width:2.22;stroke-miterlimit:22.9256}
    .str0 {stroke:#2B2A29;stroke-width:0.41;stroke-miterlimit:22.9256}
    .str2 {stroke:#2B2A29;stroke-width:2.97;stroke-miterlimit:22.9256}
    .fil2 {fill:none}
    .fil1 {fill:white}
    .fil0 {fill:#313C42;fill-rule:nonzero}
   ]]>
  </style>
 </defs>
 <g id="Слой_x0020_1">
  <metadata id="CorelCorpID_0Corel-Layer"/>
  <g id="cart_filled.svg">
   <g>
    <path class="fil0" d="M184.88 149.58l-117.02 0c-2.35,0 -4.31,-1.26 -5.41,-3.29 -1.09,-1.86 -1.09,-4.21 -0.16,-6.02l21.02 -20.36c1.26,-1.09 1.59,-2.79 0.99,-4.32l-45.22 -111.07c-0.6,-1.54 -2.02,-2.52 -3.55,-2.52l-32.65 0c-2.19,0 -3.88,1.75 -3.88,3.89 0,2.35 1.69,4.05 3.88,4.05l30.03 0 42.98 106.25 -19.5 18.78c-0.27,0.32 -0.44,0.49 -0.6,0.76 -2.62,4.54 -2.78,9.96 -0.16,14.45 2.51,4.49 7.1,7.28 12.23,7.28l117.02 0c2.13,0 3.83,-1.69 3.83,-3.88 0,-2.19 -1.7,-4 -3.83,-4l0 0z"/>
    <ellipse class="fil0" cx="89.7" cy="181.82" rx="15.45" ry="15.66"/>
    <ellipse class="fil0" cx="151.41" cy="181.82" rx="15.45" ry="15.66"/>
    <path class="fil0" d="M92.16 116.68l69.95 0 31.89 -82.71 -134.5 0 31.89 78.66c0.44,1.42 0.61,2.63 0.77,4.05z"/>
   </g>
  </g>
  <polygon class="fil1 str0" points="65.73,37.31 188.54,37.31 159.6,113.18 95,112.9 "/>
  <polyline class="fil2 str1" points="95.6,112.9 65.73,37.31 97.07,112.9 "/>
  <line class="fil2 str2" x1="185.86" y1="37.31" x2="156.81" y2= "113.18" />
  <line class="fil2 str2" x1="66.33" y1="38.79" x2="185.26" y2= "38.84" />
  <line class="fil2 str2" x1="95" y1="111.37" x2="157.52" y2= "111.48" />
  <line class="fil2 str2" x1="107.12" y1="38.84" x2="107.01" y2= "111.37" />
  <line class="fil2 str2" x1="146.49" y1="38.84" x2="146.38" y2= "111.43" />
  <line class="fil2 str2" x1="80.69" y1="75.08" x2="171.34" y2= "75.24" />
 </g>
</svg>
