<?xml version="1.0" encoding="UTF-8"?>
<!DOCTYPE svg PUBLIC "-//W3C//DTD SVG 1.1//EN" "http://www.w3.org/Graphics/SVG/1.1/DTD/svg11.dtd">
<!-- Creator: CorelDRAW -->
<svg xmlns="http://www.w3.org/2000/svg" xml:space="preserve" width="200px" height="200px" version="1.1" style="shape-rendering:geometricPrecision; text-rendering:geometricPrecision; image-rendering:optimizeQuality; fill-rule:evenodd; clip-rule:evenodd"
viewBox="0 0 200 200"
 xmlns:xlink="http://www.w3.org/1999/xlink"
 xmlns:xodm="http://www.corel.com/coreldraw/odm/2003">
 <defs>
  <style type="text/css">
   <![CDATA[
    .fil0 {fill:black}
   ]]>
  </style>
 </defs>
 <g id="Слой_x0020_1">
  <metadata id="CorelCorpID_0Corel-Layer"/>
  <g id="love_included_off.svg">
   <g id="Page-1">
    <g id="Dribbble-Light-Preview">
     <g id="icons">
      <g>
       <path id="love-_x005b__x0023_1489_x005d_" class="fil0" d="M119.33 153.88c-5.46,4.41 -12.46,6.85 -19.73,6.85 -7.27,0 -14.29,-2.43 -19.96,-6.98 -35.76,-28.69 -58.53,-43.91 -59.71,-75.13 -1.24,-33.05 36.76,-45.12 60.07,-17.98 4.71,5.49 11.8,8.64 19.44,8.64 7.71,0 14.84,-3.19 19.57,-8.74 22.79,-26.71 61.81,-15.33 60.03,19.04 -1.59,30.58 -25.23,46.37 -59.71,74.3l0 0zm-15.98 -104.6c-0.98,1.15 -2.45,1.72 -3.91,1.72 -1.44,0 -2.86,-0.55 -3.81,-1.66 -35.26,-41.07 -97.5,-20.62 -95.59,29.91 1.52,40.21 31.45,60.14 66.69,88.41 9.42,7.56 21.15,11.34 32.87,11.34 11.75,0 23.49,-3.8 32.89,-11.41 34.85,-28.24 64.4,-48.04 66.42,-87.15 2.69,-51.65 -60.4,-72.39 -95.56,-31.16z"/>
      </g>
     </g>
    </g>
   </g>
  </g>
 </g>
</svg>
