<?xml version="1.0" encoding="UTF-8"?>
<!DOCTYPE svg PUBLIC "-//W3C//DTD SVG 1.1//EN" "http://www.w3.org/Graphics/SVG/1.1/DTD/svg11.dtd">
<!-- Creator: CorelDRAW -->
<svg xmlns="http://www.w3.org/2000/svg" xml:space="preserve" width="30px" height="30px" version="1.1" style="shape-rendering:geometricPrecision; text-rendering:geometricPrecision; image-rendering:optimizeQuality; fill-rule:evenodd; clip-rule:evenodd"
viewBox="0 0 30 30"
 xmlns:xlink="http://www.w3.org/1999/xlink"
 xmlns:xodm="http://www.corel.com/coreldraw/odm/2003">
 <defs>
  <style type="text/css">
   <![CDATA[
    .fil0 {fill:black}
   ]]>
  </style>
 </defs>
 <g id="Слой_x0020_1">
  <metadata id="CorelCorpID_0Corel-Layer"/>
  <g id="love_included_off.svg">
   <g id="Page-1">
    <g id="Dribbble-Light-Preview">
     <g id="icons">
      <g>
       <path id="love-5B2314895D" class="fil0" d="M17.82 22.21c-0.73,0.67 -1.66,1.04 -2.62,1.04 -0.96,0 -1.89,-0.37 -2.64,-1.06 -4.74,-4.32 -7.76,-6.62 -7.92,-11.32 -0.16,-4.99 4.87,-6.81 7.96,-2.71 0.63,0.82 1.57,1.3 2.58,1.3 1.02,0 1.97,-0.48 2.59,-1.32 3.02,-4.03 8.2,-2.31 7.96,2.87 -0.21,4.61 -3.34,6.99 -7.91,11.2l0 0 0 0zm-2.12 -15.77c-0.13,0.18 -0.33,0.26 -0.52,0.26 -0.19,0 -0.38,-0.08 -0.5,-0.25 -4.68,-6.19 -12.93,-3.11 -12.67,4.51 0.2,6.06 4.16,9.07 8.83,13.33 1.25,1.14 2.81,1.71 4.36,1.71 1.56,0 3.11,-0.57 4.36,-1.72 4.62,-4.26 8.53,-7.24 8.8,-13.14 0.36,-7.79 -8,-10.91 -12.66,-4.7l0 0z"/>
      </g>
     </g>
    </g>
   </g>
  </g>
 </g>
</svg>
