<?xml version="1.0" encoding="UTF-8"?>
<!DOCTYPE svg PUBLIC "-//W3C//DTD SVG 1.1//EN" "http://www.w3.org/Graphics/SVG/1.1/DTD/svg11.dtd">
<!-- Creator: CorelDRAW -->
<svg xmlns="http://www.w3.org/2000/svg" xml:space="preserve" width="200px" height="200px" version="1.1" style="shape-rendering:geometricPrecision; text-rendering:geometricPrecision; image-rendering:optimizeQuality; fill-rule:evenodd; clip-rule:evenodd"
viewBox="0 0 200 200"
 xmlns:xlink="http://www.w3.org/1999/xlink"
 xmlns:xodm="http://www.corel.com/coreldraw/odm/2003">
 <defs>
  <style type="text/css">
   <![CDATA[
    .fil0 {fill:black}
   ]]>
  </style>
 </defs>
 <g id="Слой_x0020_1">
  <metadata id="CorelCorpID_0Corel-Layer"/>
  <g id="pin_local_address_lite.svg">
   <g id="Page-1">
    <g id="Dribbble-Light-Preview">
     <g id="icons">
      <g>
       <path id="pin_sharp_circle-_x005b__x0023_624_x005d_" class="fil0" d="M121 72.19c0,11.05 -8.95,20 -20,20 -11.05,0 -20,-8.95 -20,-20 0,-11.05 8.95,-20 20,-20 11.05,0 20,8.95 20,20l0 0zm-20 97.81c0,0 -50,-70 -50,-100 0,-27.57 22.43,-50 50,-50 27.57,0 50,22.43 50,50 0,30 -50,100 -50,100l0 0zm0 -170c-38.66,0 -70,31.34 -70,70 0,38.66 70,130 70,130 0,0 70,-91.34 70,-130 0,-38.66 -31.34,-70 -70,-70z"/>
      </g>
     </g>
    </g>
   </g>
  </g>
 </g>
</svg>
