<?xml version="1.0" encoding="UTF-8"?>
<!DOCTYPE svg PUBLIC "-//W3C//DTD SVG 1.1//EN" "http://www.w3.org/Graphics/SVG/1.1/DTD/svg11.dtd">
<!-- Creator: CorelDRAW -->
<svg xmlns="http://www.w3.org/2000/svg" xml:space="preserve" width="30px" height="30px" version="1.1" style="shape-rendering:geometricPrecision; text-rendering:geometricPrecision; image-rendering:optimizeQuality; fill-rule:evenodd; clip-rule:evenodd"
viewBox="0 0 30 30"
 xmlns:xlink="http://www.w3.org/1999/xlink"
 xmlns:xodm="http://www.corel.com/coreldraw/odm/2003">
 <defs>
  <style type="text/css">
   <![CDATA[
    .fil0 {fill:black}
   ]]>
  </style>
 </defs>
 <g id="Слой_x0020_1">
  <metadata id="CorelCorpID_0Corel-Layer"/>
  <g id="pin_local_address_lite.svg">
   <g id="Page-1">
    <g id="Dribbble-Light-Preview">
     <g id="icons">
      <g>
       <path id="pin_sharp_circle-5B236245D" class="fil0" d="M17.95 11.47c0,1.6 -1.39,2.9 -3.1,2.9 -1.71,0 -3.1,-1.3 -3.1,-2.9 0,-1.6 1.39,-2.9 3.1,-2.9 1.71,0 3.1,1.3 3.1,2.9l0 0zm-3.1 14.18c0,0 -7.75,-10.15 -7.75,-14.5 0,-4 3.48,-7.25 7.75,-7.25 4.27,0 7.75,3.25 7.75,7.25 0,4.35 -7.75,14.5 -7.75,14.5l0 0zm0 -24.65c-5.99,0 -10.85,4.55 -10.85,10.15 0,5.61 10.85,18.85 10.85,18.85 0,0 10.85,-13.24 10.85,-18.85 0,-5.6 -4.86,-10.15 -10.85,-10.15z"/>
      </g>
     </g>
    </g>
   </g>
  </g>
 </g>
</svg>
