<?xml version="1.0" encoding="UTF-8"?>
<!DOCTYPE svg PUBLIC "-//W3C//DTD SVG 1.1//EN" "http://www.w3.org/Graphics/SVG/1.1/DTD/svg11.dtd">
<!-- Creator: CorelDRAW -->
<svg xmlns="http://www.w3.org/2000/svg" xml:space="preserve" width="200px" height="200px" version="1.1" style="shape-rendering:geometricPrecision; text-rendering:geometricPrecision; image-rendering:optimizeQuality; fill-rule:evenodd; clip-rule:evenodd"
viewBox="0 0 200 200"
 xmlns:xlink="http://www.w3.org/1999/xlink"
 xmlns:xodm="http://www.corel.com/coreldraw/odm/2003">
 <defs>
  <style type="text/css">
   <![CDATA[
    .fil0 {fill:black}
   ]]>
  </style>
 </defs>
 <g id="Слой_x0020_1">
  <metadata id="CorelCorpID_0Corel-Layer"/>
  <g id="profile_cabinet.svg">
   <g id="Page-1">
    <g id="Dribbble-Light-Preview">
     <g id="icons">
      <g>
       <path id="profile-_x005b__x0023_1336_x005d_" class="fil0" d="M97.5 117.6c38.04,0 69.93,22.25 78.23,60.3l-156.46 0c8.3,-38.05 40.19,-60.3 78.23,-60.3l0 0zm-40.2 -60.3c0,-22.17 18.03,-40.2 40.2,-40.2 22.17,0 40.2,18.03 40.2,40.2 0,22.17 -18.03,40.2 -40.2,40.2 -22.17,0 -40.2,-18.03 -40.2,-40.2l0 0zm77.97 46.96c13.73,-11.04 22.53,-27.97 22.53,-46.96 0,-33.31 -27,-60.3 -60.3,-60.3 -33.31,0 -60.3,26.99 -60.3,60.3 0,18.99 8.8,35.92 22.53,46.96 -36.77,13.82 -62.73,47.96 -62.73,93.74l201 0c0,-45.78 -25.96,-79.92 -62.73,-93.74z"/>
      </g>
     </g>
    </g>
   </g>
  </g>
 </g>
</svg>
