<?xml version="1.0" encoding="UTF-8"?>
<!DOCTYPE svg PUBLIC "-//W3C//DTD SVG 1.1//EN" "http://www.w3.org/Graphics/SVG/1.1/DTD/svg11.dtd">
<!-- Creator: CorelDRAW -->
<svg xmlns="http://www.w3.org/2000/svg" xml:space="preserve" width="20px" height="20px" version="1.1" style="shape-rendering:geometricPrecision; text-rendering:geometricPrecision; image-rendering:optimizeQuality; fill-rule:evenodd; clip-rule:evenodd"
viewBox="0 0 20 20"
 xmlns:xlink="http://www.w3.org/1999/xlink"
 xmlns:xodm="http://www.corel.com/coreldraw/odm/2003">
 <defs>
  <style type="text/css">
   <![CDATA[
    .fil0 {fill:#1C62CD;fill-rule:nonzero}
   ]]>
  </style>
 </defs>
 <g id="Слой_x0020_1">
  <metadata id="CorelCorpID_0Corel-Layer"/>
  <path id="ruble_sign_icon_195295.svg" class="fil0" d="M11.62 12.67c2.91,0 4.94,-2.48 4.94,-6.04 0,-3.56 -2.03,-5.96 -4.94,-5.96l-5.58 0c-0.23,0 -0.41,0.22 -0.41,0.5l0 8.61 -1.78 0c-0.23,0 -0.41,0.22 -0.41,0.5l0 1.89c0,0.27 0.18,0.5 0.41,0.5l1.78 0 0 1.33 -1.78 0c-0.23,0 -0.41,0.22 -0.41,0.5l0 1.67c0,0.27 0.18,0.5 0.41,0.5l1.78 0 0 2.16c0,0.28 0.18,0.5 0.41,0.5l2 0c0.22,0 0.41,-0.22 0.41,-0.5l0 -2.16 5.51 0c0.23,0 0.41,-0.23 0.41,-0.5l0 -1.67c0,-0.28 -0.18,-0.5 -0.41,-0.5l-5.51 0 0 -1.33 3.17 0 0 0zm-3.17 -9.14l2.69 0c1.59,0 2.55,1.21 2.55,3.1 0,1.91 -0.96,3.15 -2.6,3.15l-2.64 0 0 -6.25 0 0z"/>
 </g>
</svg>
