<?xml version="1.0" encoding="UTF-8"?>
<!DOCTYPE svg PUBLIC "-//W3C//DTD SVG 1.1//EN" "http://www.w3.org/Graphics/SVG/1.1/DTD/svg11.dtd">
<!-- Creator: CorelDRAW -->
<svg xmlns="http://www.w3.org/2000/svg" xml:space="preserve" width="20px" height="20px" version="1.1" style="shape-rendering:geometricPrecision; text-rendering:geometricPrecision; image-rendering:optimizeQuality; fill-rule:evenodd; clip-rule:evenodd"
viewBox="0 0 20 20"
 xmlns:xlink="http://www.w3.org/1999/xlink"
 xmlns:xodm="http://www.corel.com/coreldraw/odm/2003">
 <defs>
  <style type="text/css">
   <![CDATA[
    .fil0 {fill:#C4C4C4;fill-rule:nonzero}
   ]]>
  </style>
 </defs>
 <g id="Слой_x0020_1">
  <metadata id="CorelCorpID_0Corel-Layer"/>
  <path id="ruble_sign_icon_195295.svg" class="fil0" d="M10.82 11.43c1.48,0 2.51,-1.33 2.51,-3.24 0,-1.9 -1.03,-3.19 -2.51,-3.19l-2.83 0c-0.12,0 -0.21,0.12 -0.21,0.27l0 4.61 -0.91 0c-0.11,0 -0.2,0.12 -0.2,0.27l0 1.01c0,0.15 0.09,0.27 0.2,0.27l0.91 0 0 0.71 -0.91 0c-0.11,0 -0.2,0.12 -0.2,0.27l0 0.89c0,0.15 0.09,0.27 0.2,0.27l0.91 0 0 1.16c0,0.15 0.09,0.27 0.21,0.27l1.01 0c0.12,0 0.21,-0.12 0.21,-0.27l0 -1.16 2.8 0c0.12,0 0.21,-0.12 0.21,-0.27l0 -0.89c0,-0.15 -0.09,-0.27 -0.21,-0.27l-2.8 0 0 -0.71 1.61 0 0 0zm-1.61 -4.89l1.37 0c0.81,0 1.3,0.64 1.3,1.65 0,1.03 -0.49,1.69 -1.32,1.69l-1.35 0 0 -3.34 0 0z"/>
 </g>
</svg>
