<?xml version="1.0" encoding="UTF-8"?>
<!DOCTYPE svg PUBLIC "-//W3C//DTD SVG 1.1//EN" "http://www.w3.org/Graphics/SVG/1.1/DTD/svg11.dtd">
<!-- Creator: CorelDRAW -->
<svg xmlns="http://www.w3.org/2000/svg" xml:space="preserve" width="200px" height="200px" version="1.1" style="shape-rendering:geometricPrecision; text-rendering:geometricPrecision; image-rendering:optimizeQuality; fill-rule:evenodd; clip-rule:evenodd"
viewBox="0 0 200 200"
 xmlns:xlink="http://www.w3.org/1999/xlink"
 xmlns:xodm="http://www.corel.com/coreldraw/odm/2003">
 <defs>
  <style type="text/css">
   <![CDATA[
    .fil0 {fill:black;fill-rule:nonzero}
   ]]>
  </style>
 </defs>
 <g id="Слой_x0020_1">
  <metadata id="CorelCorpID_0Corel-Layer"/>
  <path id="ruble_sign_icon_195295.svg" class="fil0" d="M110.89 125.14c28.9,0 49.11,-23.36 49.11,-56.93 0,-33.58 -20.21,-56.21 -49.11,-56.21l-55.48 0c-2.25,0 -4.07,2.11 -4.07,4.71l0 81.18 -17.66 0c-2.25,0 -4.07,2.11 -4.07,4.72l0 17.82c0,2.6 1.82,4.71 4.07,4.71l17.66 0 0 12.58 -17.66 0c-2.25,0 -4.07,2.11 -4.07,4.71l0 15.71c0,2.61 1.82,4.72 4.07,4.72l17.66 0 0 20.43c0,2.6 1.82,4.71 4.07,4.71l19.89 0c2.25,0 4.07,-2.11 4.07,-4.71l0 -20.43 54.82 0c2.25,0 4.08,-2.11 4.08,-4.72l0 -15.71c0,-2.6 -1.83,-4.71 -4.08,-4.71l-54.82 0 0 -12.58 31.52 0zm-31.52 -86.13l26.73 0c15.87,0 25.43,11.43 25.43,29.2 0,18 -9.56,29.68 -25.86,29.68l-26.3 0 0 -58.88z"/>
 </g>
</svg>
