<?xml version="1.0" encoding="UTF-8"?>
<!DOCTYPE svg PUBLIC "-//W3C//DTD SVG 1.1//EN" "http://www.w3.org/Graphics/SVG/1.1/DTD/svg11.dtd">
<!-- Creator: CorelDRAW -->
<svg xmlns="http://www.w3.org/2000/svg" xml:space="preserve" width="200px" height="200px" version="1.1" style="shape-rendering:geometricPrecision; text-rendering:geometricPrecision; image-rendering:optimizeQuality; fill-rule:evenodd; clip-rule:evenodd"
viewBox="0 0 200 200"
 xmlns:xlink="http://www.w3.org/1999/xlink"
 xmlns:xodm="http://www.corel.com/coreldraw/odm/2003">
 <defs>
  <style type="text/css">
   <![CDATA[
    .fil0 {fill:black}
   ]]>
  </style>
 </defs>
 <g id="Слой_x0020_1">
  <metadata id="CorelCorpID_0Corel-Layer"/>
  <g id="zoom_out.svg">
   <g id="Page-1">
    <g id="Dribbble-Light-Preview">
     <g id="icons">
      <path id="zoom_out-_x005b__x0023_1459_x005d_" class="fil0" d="M38.58 86.03l81.15 0 0 -19.45 -81.15 0 0 19.45zm156.42 93.22l-14.35 13.75 -43.04 -41.26 14.35 -13.75 43.04 41.26zm-115.85 -44.11c-33.56,0 -60.86,-26.17 -60.86,-58.35 0,-32.16 27.3,-58.34 60.86,-58.34 33.56,0 60.87,26.18 60.87,58.34 0,32.18 -27.31,58.35 -60.87,58.35l0 0zm0 -136.14c-44.83,0 -81.15,34.83 -81.15,77.79 0,42.97 36.32,77.8 81.15,77.8 44.82,0 81.16,-34.83 81.16,-77.8 0,-42.96 -36.34,-77.79 -81.16,-77.79l0 0z"/>
     </g>
    </g>
   </g>
  </g>
 </g>
</svg>
