<?xml version="1.0" encoding="UTF-8"?>
<!DOCTYPE svg PUBLIC "-//W3C//DTD SVG 1.1//EN" "http://www.w3.org/Graphics/SVG/1.1/DTD/svg11.dtd">
<!-- Creator: CorelDRAW -->
<svg xmlns="http://www.w3.org/2000/svg" xml:space="preserve" width="200px" height="200px" version="1.1" style="shape-rendering:geometricPrecision; text-rendering:geometricPrecision; image-rendering:optimizeQuality; fill-rule:evenodd; clip-rule:evenodd"
viewBox="0 0 200 200"
 xmlns:xlink="http://www.w3.org/1999/xlink"
 xmlns:xodm="http://www.corel.com/coreldraw/odm/2003">
 <defs>
  <style type="text/css">
   <![CDATA[
    .fil0 {fill:black}
   ]]>
  </style>
 </defs>
 <g id="Слой_x0020_1">
  <metadata id="CorelCorpID_0Corel-Layer"/>
  <g id="zoom_in.svg">
   <g id="Page-1">
    <g id="Dribbble-Light-Preview">
     <g id="icons">
      <path id="zoom_in-_x005b__x0023_1461_x005d_" class="fil0" d="M86.65 66.93l29.55 0 0 19.55 -29.55 0 0 29.33 -19.7 0 0 -29.33 -29.55 0 0 -19.55 29.55 0 0 -29.32 19.7 0 0 29.32zm108.35 113.25l-13.93 13.82 -41.79 -41.47 13.93 -13.82 41.79 41.47zm-118.2 -44.34c-32.58,0 -59.1,-26.3 -59.1,-58.65 0,-32.33 26.52,-58.64 59.1,-58.64 32.58,0 59.1,26.31 59.1,58.64 0,32.35 -26.52,58.65 -59.1,58.65l0 0zm0 -136.84c-43.52,0 -78.8,35.01 -78.8,78.19 0,43.2 35.28,78.2 78.8,78.2 43.52,0 78.8,-35 78.8,-78.2 0,-43.18 -35.28,-78.19 -78.8,-78.19l0 0z"/>
     </g>
    </g>
   </g>
  </g>
 </g>
</svg>
